<?xml version="1.0" standalone="no"?>
<!DOCTYPE svg PUBLIC "-//W3C//DTD SVG 20010904//EN"
 "http://www.w3.org/TR/2001/REC-SVG-20010904/DTD/svg10.dtd">
<svg version="1.0" xmlns="http://www.w3.org/2000/svg"
 width="375.000000pt" height="375.000000pt" viewBox="0 0 375.000000 375.000000"
 preserveAspectRatio="xMidYMid meet">
<metadata>
Created by potrace 1.14, written by Peter Selinger 2001-2017
</metadata>
<g transform="translate(0.000000,375.000000) scale(0.100000,-0.100000)"
fill="#000000" stroke="none">
<path d="M3120 2980 c-131 -30 -242 -79 -329 -145 -34 -26 -58 -51 -55 -57 4
-7 9 -6 14 2 5 8 9 6 14 -6 4 -11 2 -20 -3 -22 -6 -2 -11 -8 -11 -14 0 -6 -8
-16 -17 -23 -14 -11 -15 -15 -4 -28 16 -20 40 -12 135 48 73 45 157 80 211 89
17 2 32 5 35 6 3 1 15 1 28 0 13 -1 29 4 37 10 10 8 15 8 20 -1 6 -8 10 -7 16
2 8 12 11 11 19 -1 15 -23 13 6 -2 32 -22 39 -39 48 -68 34 -34 -16 -90 -9
-90 11 0 9 6 13 15 9 8 -3 15 -1 15 3 0 5 9 7 20 4 11 -3 32 2 46 12 14 9 32
14 39 11 9 -3 12 0 9 9 -3 7 2 15 13 18 31 8 -70 5 -107 -3z m-60 -68 c0 -4
-20 -18 -45 -30 -25 -12 -45 -26 -45 -32 0 -5 -7 -7 -15 -4 -23 9 -19 33 5 27
11 -3 20 -1 20 5 0 6 14 13 30 17 17 4 30 11 30 16 0 5 5 9 10 9 6 0 10 -4 10
-8z m-114 -79 c-7 -7 -26 7 -26 19 0 6 6 6 15 -2 9 -7 13 -15 11 -17z m-36 -3
c0 -5 -5 -10 -11 -10 -5 0 -7 5 -4 10 3 6 8 10 11 10 2 0 4 -4 4 -10z m-40
-10 c0 -5 -5 -10 -11 -10 -5 0 -7 5 -4 10 3 6 8 10 11 10 2 0 4 -4 4 -10z
m-56 -34 c-21 -15 -30 -14 -19 3 3 6 14 11 23 11 13 0 13 -2 -4 -14z"/>
<path d="M2690 2760 c-14 -10 -22 -22 -18 -25 3 -4 16 3 28 15 28 28 22 34
-10 10z"/>
<path d="M2571 2621 c-13 -11 -29 -17 -36 -15 -8 3 -27 -6 -42 -20 -15 -14
-22 -26 -15 -26 6 0 12 5 12 10 0 14 16 12 32 -3 7 -7 21 -18 32 -24 17 -10
17 -11 -5 -32 -30 -27 -39 -27 -39 4 0 14 -4 25 -10 25 -5 0 -10 -7 -10 -15 0
-8 -4 -15 -10 -15 -5 0 -7 -7 -4 -15 4 -8 14 -15 23 -15 9 0 12 -3 6 -8 -5 -4
-17 -16 -25 -26 -14 -18 -14 -19 5 -8 11 6 36 27 55 47 19 19 40 33 47 31 7
-3 13 -1 13 5 0 5 8 19 19 30 16 18 19 18 25 4 8 -23 -1 -35 -21 -28 -13 5
-15 2 -10 -11 4 -10 7 -20 7 -22 0 -2 5 -4 12 -4 6 0 8 3 5 7 -4 3 2 12 12 20
12 8 17 20 14 33 -4 16 -2 19 12 14 13 -5 16 -3 13 7 -3 8 -16 13 -32 11 l-27
-3 16 31 16 30 -34 0 c-19 0 -44 -8 -56 -19z m38 -40 c7 -5 10 -14 7 -20 -10
-16 -29 -13 -23 3 3 8 1 17 -6 20 -7 2 -7 5 -2 5 6 0 16 -3 24 -8z"/>
<path d="M2659 2613 c-13 -15 -12 -15 9 -4 23 12 28 21 13 21 -5 0 -15 -7 -22
-17z"/>
<path d="M2450 2530 c-9 -6 -10 -10 -3 -10 6 0 15 5 18 10 8 12 4 12 -15 0z"/>
<path d="M2365 2440 c-3 -6 1 -7 9 -4 18 7 21 14 7 14 -6 0 -13 -4 -16 -10z"/>
<path d="M267 2382 c-19 -20 -23 -47 -7 -37 6 4 7 11 4 17 -4 7 -2 8 4 4 6 -4
9 -13 6 -21 -3 -8 4 -24 15 -36 22 -24 21 -39 -2 -21 -8 7 -18 8 -22 4 -5 -4
-5 -1 -1 6 4 6 0 19 -8 28 -9 8 -16 24 -16 34 0 13 -10 20 -36 25 -20 3 -39 4
-42 1 -3 -3 4 -6 16 -6 16 0 20 -4 15 -17 -3 -10 -12 -23 -20 -29 -10 -9 -2
-16 39 -33 29 -12 88 -40 131 -62 43 -22 82 -37 88 -33 5 3 16 1 23 -6 8 -6
25 -8 39 -5 15 4 28 2 32 -5 5 -9 1 -10 -16 -5 -20 6 -22 5 -12 -6 7 -7 28
-13 47 -12 24 1 36 -4 39 -16 5 -19 104 -63 113 -50 3 5 -3 9 -12 9 -14 0 -13
3 5 19 28 24 25 66 -3 66 -11 0 -21 5 -23 12 -8 22 17 24 57 4 22 -10 41 -15
41 -10 1 5 2 14 3 21 1 11 36 22 36 11 0 -3 -9 -18 -21 -34 -13 -18 -19 -40
-17 -54 3 -13 0 -26 -6 -29 -6 -2 -1 -5 12 -5 16 -1 21 3 16 11 -10 15 -12 58
-3 58 4 0 9 -13 12 -30 5 -23 11 -28 24 -24 15 5 15 3 -2 -12 -18 -15 -18 -16
-1 -10 14 5 17 3 12 -10 -5 -14 -4 -15 8 -5 11 9 15 9 19 -1 4 -10 8 -10 15 1
17 24 41 21 53 -9 11 -24 16 -27 41 -19 22 6 28 4 28 -7 0 -8 5 -12 11 -9 6 4
8 14 5 22 -4 9 -1 13 6 10 7 -2 12 -14 11 -25 -2 -15 4 -22 20 -24 12 -2 21
-7 20 -13 -4 -15 50 -27 59 -12 5 8 9 6 14 -6 8 -21 28 -22 48 -1 15 14 16 13
16 -11 0 -20 4 -26 16 -21 8 3 12 2 9 -4 -3 -6 -2 -10 3 -10 6 0 12 7 16 15 3
8 13 15 22 15 14 0 15 2 3 18 -13 15 -12 16 4 3 16 -13 22 -12 50 4 18 11 34
18 37 17 3 -2 8 11 11 28 9 42 19 50 20 14 l1 -29 14 33 c8 17 21 32 29 32 8
0 15 7 15 15 0 8 -6 15 -12 15 -9 0 -9 3 1 9 8 5 20 7 27 4 7 -3 23 2 36 11
21 15 21 16 3 15 -29 -3 -85 12 -85 23 0 5 -5 6 -10 3 -6 -4 -34 -1 -63 6 -29
7 -60 12 -70 10 -10 -1 -16 3 -15 10 2 7 -5 15 -16 17 -11 2 -16 0 -12 -7 5
-7 -4 -11 -23 -11 -25 0 -31 -4 -31 -22 -1 -21 -2 -21 -11 -5 -5 9 -19 17 -29
17 -11 0 -20 4 -20 9 0 4 -11 6 -25 3 -14 -2 -25 -8 -25 -13 0 -5 -8 -9 -19
-9 -10 0 -24 -6 -30 -14 -10 -12 -8 -14 11 -10 18 3 17 2 -4 -7 -19 -7 -28
-18 -28 -32 1 -21 1 -21 15 -3 11 15 17 16 28 8 8 -7 18 -8 22 -4 5 4 5 -1 2
-11 -4 -10 -7 -22 -8 -25 0 -4 -4 1 -8 12 -7 17 -8 17 -23 2 -23 -23 -38 -20
-38 7 0 23 -17 47 -32 47 -4 0 -8 -7 -8 -15 0 -8 7 -15 17 -15 23 0 7 -13 -19
-15 -12 -1 -30 7 -40 17 -19 19 -19 21 -2 39 10 11 12 19 6 19 -7 0 -12 -5
-12 -11 0 -6 -9 -9 -20 -6 -17 4 -19 1 -15 -31 4 -34 3 -36 -10 -18 -8 11 -15
23 -15 28 0 4 -7 8 -15 8 -8 0 -15 5 -15 10 0 6 6 10 13 8 18 -3 57 12 57 23
0 5 -3 8 -7 8 -36 -6 -66 12 -57 34 8 22 25 12 18 -11 -5 -16 -5 -16 9 0 8 10
16 17 18 15 2 -1 -5 6 -16 15 -11 9 -23 14 -27 12 -3 -2 -9 0 -13 6 -4 6 6 10
22 11 l28 1 -30 9 c-16 5 -91 11 -165 14 -150 7 -203 16 -304 51 -38 13 -70
24 -71 24 -1 0 -9 -8 -18 -18z m-50 -27 c0 -8 -4 -12 -9 -9 -4 3 -8 9 -8 15 0
5 4 9 8 9 5 0 9 -7 9 -15z m555 -75 c-5 -33 -19 -49 -43 -47 -27 2 -24 14 6
21 14 4 25 13 25 21 0 9 -6 12 -15 9 -10 -4 -15 0 -15 11 0 11 7 15 23 13 17
-2 21 -8 19 -28z m-135 -2 c-3 -8 -6 -5 -6 6 -1 11 2 17 5 13 3 -3 4 -12 1
-19z m86 7 c4 -8 2 -17 -3 -20 -6 -4 -10 3 -10 14 0 25 6 27 13 6z m87 -15 c0
-5 -4 -10 -10 -10 -5 0 -10 5 -10 10 0 6 5 10 10 10 6 0 10 -4 10 -10z m-440
-15 c10 -12 10 -15 -3 -15 -8 0 -17 7 -21 15 -3 8 -2 15 3 15 5 0 14 -7 21
-15z m35 -5 c-4 -11 -2 -20 4 -20 6 0 11 -5 11 -12 0 -8 -5 -7 -15 3 -9 9 -13
23 -9 32 9 24 17 21 9 -3z m249 -72 c-4 -6 1 -17 10 -24 10 -7 15 -17 11 -23
-11 -19 -22 -12 -28 16 -5 27 -1 43 9 43 3 0 2 -5 -2 -12z m44 -17 c3 -8 -1
-12 -9 -9 -7 2 -15 10 -17 17 -3 8 1 12 9 9 7 -2 15 -10 17 -17z m522 4 c-7
-8 -17 -12 -23 -8 -6 4 -3 9 9 14 27 11 28 11 14 -6z m-35 -25 c3 -5 1 -10 -4
-10 -6 0 -11 5 -11 10 0 6 2 10 4 10 3 0 8 -4 11 -10z m200 -30 c3 -5 1 -10
-4 -10 -6 0 -11 5 -11 10 0 6 2 10 4 10 3 0 8 -4 11 -10z m-75 -21 c0 -4 -6
-12 -14 -18 -11 -9 -15 -7 -18 7 -4 12 1 18 13 18 11 0 19 -3 19 -7z"/>
<path d="M860 2290 c-12 -8 -11 -10 7 -10 12 0 28 -3 36 -6 8 -3 17 2 20 10 5
12 0 16 -21 16 -15 0 -34 -5 -42 -10z"/>
<path d="M2019 2255 c-15 -14 -23 -16 -26 -7 -10 26 -21 10 -16 -23 5 -36 -11
-47 -34 -24 -9 9 -19 6 -40 -9 -16 -11 -42 -24 -57 -28 -15 -3 -32 -17 -38
-30 -6 -13 -14 -21 -18 -19 -5 3 -4 -11 0 -30 4 -19 5 -36 2 -39 -3 -4 2 -6
11 -6 10 0 17 -4 17 -10 0 -5 7 -10 15 -10 9 0 12 -6 9 -15 -4 -8 -10 -12 -15
-9 -5 3 -9 -4 -9 -15 0 -12 -5 -21 -11 -21 -6 0 -8 7 -5 16 4 11 1 14 -12 12
-9 -2 -16 -10 -14 -17 5 -22 -19 -41 -50 -41 -16 0 -27 -4 -24 -9 3 -5 -1 -11
-9 -15 -17 -6 -20 -42 -5 -51 6 -3 10 -18 10 -32 0 -18 4 -24 15 -19 11 4 15
-1 15 -17 0 -18 -2 -19 -10 -7 -5 8 -10 11 -10 7 0 -4 10 -21 22 -37 12 -17
22 -40 23 -52 1 -12 7 -24 14 -26 9 -3 9 -7 0 -18 -14 -17 2 -19 19 -2 9 9 12
9 12 -3 0 -8 -5 -20 -12 -27 -9 -9 -9 -12 1 -12 11 0 11 -3 1 -15 -12 -15 -3
-21 24 -16 5 1 6 -5 3 -13 -7 -19 25 -39 47 -30 9 4 16 1 16 -6 0 -6 10 -20
22 -30 21 -16 23 -16 35 -1 11 14 13 14 19 -6 6 -23 24 -32 24 -13 0 6 8 10
18 10 16 1 16 1 -1 14 -14 11 -15 15 -5 19 10 4 8 9 -6 18 -65 41 -95 100 -71
139 6 10 4 12 -8 7 -10 -3 -17 -2 -17 3 0 6 9 10 21 10 l21 0 -21 36 c-23 39
-20 61 3 29 12 -16 16 -17 30 -6 11 9 16 10 16 2 0 -6 4 -11 9 -11 5 0 9 11 9
25 0 29 -22 33 -37 8 -12 -22 -20 -14 -25 23 -3 16 -7 37 -11 47 -5 12 -3 17
6 15 8 -2 14 9 16 30 2 26 -1 32 -17 32 -12 0 -24 10 -30 24 -5 13 -14 26 -21
28 -10 3 -9 9 3 26 8 12 18 19 22 15 11 -11 69 -11 83 0 7 5 17 6 23 2 5 -3
10 -1 10 4 0 6 -4 11 -9 11 -14 0 -20 38 -7 44 7 3 7 5 -1 5 -21 1 -15 19 8
26 12 4 18 10 13 14 -5 3 -10 14 -10 24 -2 19 37 34 57 22 7 -5 9 -1 5 12 -5
14 1 21 27 31 18 7 28 16 22 20 -5 4 -10 13 -10 21 0 22 -52 19 -76 -4z"/>
<path d="M936 2253 c-6 -14 -5 -15 5 -6 7 7 10 15 7 18 -3 3 -9 -2 -12 -12z"/>
<path d="M887 2229 c7 -7 15 -10 18 -7 3 3 -2 9 -12 12 -14 6 -15 5 -6 -5z"/>
<path d="M980 2220 c0 -7 -7 -10 -16 -6 -8 3 -12 2 -9 -4 3 -6 14 -10 23 -10
13 0 14 -2 3 -9 -7 -5 -9 -11 -5 -14 5 -3 18 7 28 22 11 14 16 23 11 19 -4 -4
-14 -3 -22 3 -10 9 -13 8 -13 -1z"/>
<path d="M920 2150 c0 -5 5 -10 11 -10 5 0 7 5 4 10 -3 6 -8 10 -11 10 -2 0
-4 -4 -4 -10z"/>
<path d="M885 2080 c-3 -5 1 -10 9 -10 9 0 16 5 16 10 0 6 -4 10 -9 10 -6 0
-13 -4 -16 -10z"/>
<path d="M1500 2064 c0 -7 4 -15 10 -19 15 -9 30 -75 23 -106 -7 -38 -61 -68
-79 -44 -6 8 -16 15 -23 15 -6 0 -11 4 -11 10 0 5 -9 14 -20 20 -18 10 -19 8
-14 -20 6 -28 3 -32 -26 -32 -3 0 -14 -9 -25 -20 l-20 -20 25 8 c33 10 72 7
81 -7 4 -8 10 -5 18 7 10 18 10 18 11 1 0 -23 -26 -33 -45 -17 -10 9 -15 9
-15 1 0 -6 -8 -11 -17 -11 -14 0 -15 -2 -4 -9 16 -10 6 -31 -14 -31 -8 0 -20
-9 -28 -20 -8 -11 -17 -17 -22 -12 -4 4 -5 -1 -2 -10 5 -13 1 -18 -13 -18 -11
0 -24 -9 -30 -20 -6 -11 -17 -20 -25 -20 -19 0 -19 -17 0 -37 9 -8 13 -18 10
-21 -3 -4 -10 0 -15 7 -7 12 -11 12 -24 -1 -17 -18 -11 -29 12 -21 11 5 13 3
7 -7 -6 -10 -4 -12 8 -7 11 4 17 1 17 -8 0 -9 6 -12 16 -8 9 3 20 0 25 -8 7
-11 11 -10 24 6 11 13 18 16 21 8 6 -13 31 -7 55 14 9 7 18 11 21 8 3 -3 9 6
12 20 5 19 12 25 22 21 8 -3 12 -1 9 4 -3 5 -1 18 4 27 10 17 10 16 11 -2 0
-12 3 -16 8 -9 4 6 24 14 45 18 20 4 37 12 37 17 0 6 15 9 33 8 41 -4 57 6 57
37 0 13 5 24 10 24 22 0 2 54 -34 95 -25 28 -44 41 -56 38 -11 -3 -19 2 -23
16 -6 24 0 31 27 31 12 0 34 11 50 23 l29 24 -21 21 c-12 12 -28 22 -35 22 -7
0 -17 4 -23 10 -16 16 -74 19 -74 4z m-70 -289 c7 -8 9 -15 6 -15 -4 0 -14 7
-22 15 -9 8 -11 15 -6 15 5 0 15 -7 22 -15z m-76 -21 c16 -6 12 -24 -5 -24 -6
0 -8 4 -5 9 4 5 0 12 -6 14 -7 3 -10 6 -6 6 3 1 13 -2 22 -5z m86 -18 c0 -2
-7 -7 -16 -10 -8 -3 -12 -2 -9 4 6 10 25 14 25 6z"/>
<path d="M1330 1995 c-10 -12 -8 -16 15 -25 33 -12 35 -12 35 0 0 6 -3 9 -7 9
-22 -4 -32 3 -27 16 8 19 0 19 -16 0z"/>
<path d="M1280 1970 c0 -5 5 -10 10 -10 6 0 10 5 10 10 0 6 -4 10 -10 10 -5 0
-10 -4 -10 -10z"/>
<path d="M1323 1939 c-1 -12 3 -16 13 -12 10 4 12 0 7 -13 -7 -18 -6 -18 11
-1 21 21 17 40 -10 42 -13 1 -21 -5 -21 -16z"/>
<path d="M848 1648 c-9 -7 -18 -22 -20 -33 -2 -14 -12 -20 -41 -21 -21 -1 -44
-8 -52 -14 -7 -6 -19 -10 -27 -9 -14 2 -24 -1 -115 -39 -34 -14 -60 -29 -57
-33 4 -8 -35 -25 -48 -21 -4 1 -4 -6 -1 -16 6 -15 5 -15 -10 -3 -11 9 -17 10
-17 2 0 -6 -11 -11 -25 -11 -14 0 -28 -7 -31 -15 -4 -8 -10 -12 -15 -9 -10 6
-194 -101 -205 -118 -4 -5 0 -16 8 -24 10 -11 22 -12 48 -4 19 6 66 10 105 11
65 0 174 15 131 18 -25 1 -19 6 17 15 16 4 26 3 24 -2 -8 -11 105 -3 120 9 6
6 38 12 70 14 33 2 79 9 103 15 25 6 56 12 70 14 14 2 50 11 80 20 30 9 75 22
100 28 l45 11 -34 9 c-27 8 -36 6 -43 -6 -13 -24 -47 -21 -45 4 1 11 7 22 15
25 10 3 12 -1 7 -18 -5 -19 -4 -20 5 -4 6 9 18 17 25 17 20 0 19 19 -2 42 -10
11 -12 18 -4 18 7 0 18 -14 25 -31 10 -23 15 -27 19 -16 3 9 -1 21 -9 27 -15
14 -19 40 -5 40 5 0 12 -7 15 -16 3 -9 11 -12 18 -8 8 5 9 2 5 -9 -3 -10 -2
-17 3 -17 6 0 13 0 17 0 10 0 9 43 -1 59 -6 10 -4 12 11 7 15 -5 23 3 41 39
24 50 26 55 14 55 -4 0 -12 -10 -17 -22 -6 -14 -18 -23 -32 -22 -12 0 -20 -2
-19 -5 2 -3 -2 -11 -9 -18 -10 -9 -15 -9 -17 -1 -3 8 -9 7 -18 -3 -8 -9 -25
-13 -43 -11 -25 4 -29 2 -24 -12 5 -11 1 -16 -13 -16 -10 0 -22 -5 -26 -11 -5
-8 -10 -7 -16 4 -10 19 -39 11 -31 -9 3 -8 -1 -14 -10 -14 -13 0 -15 12 -8 53
0 5 5 6 10 3 5 -3 14 1 21 9 15 18 9 19 -24 4 -14 -7 -26 -21 -28 -32 -2 -11
-10 -22 -18 -24 -12 -4 -13 -3 -1 5 8 6 11 17 7 27 -4 12 -10 14 -19 8 -19
-15 -49 -24 -42 -13 3 6 -1 10 -9 10 -9 0 -16 -4 -16 -10 0 -5 -7 -7 -15 -4
-11 5 -12 9 -2 19 7 7 14 11 16 9 2 -2 10 1 18 7 9 9 13 8 13 0 0 -17 17 -13
24 7 7 22 28 55 41 64 7 5 6 8 -1 8 -5 0 -17 -6 -26 -12z m82 -223 c-7 -9 -15
-13 -19 -10 -3 3 1 10 9 15 21 14 24 12 10 -5z m-23 -31 c-3 -3 -12 -4 -19 -1
-8 3 -5 6 6 6 11 1 17 -2 13 -5z m-387 -34 c8 -5 11 -10 5 -10 -5 0 -17 5 -25
10 -8 5 -10 10 -5 10 6 0 17 -5 25 -10z m-263 -39 c0 -11 -5 -18 -9 -15 -4 3
-5 11 -1 19 7 21 12 19 10 -4z"/>
<path d="M1008 1613 c-10 -2 -18 -9 -18 -14 0 -6 10 -5 23 2 37 20 36 23 -5
12z"/>
<path d="M1996 1599 c-11 -16 -12 -26 -4 -38 13 -22 71 -62 77 -54 4 3 0 8 -6
10 -15 5 -17 23 -3 23 5 0 12 -11 16 -25 3 -13 12 -29 20 -36 17 -14 19 2 2
19 -9 9 -8 12 5 12 9 0 17 5 17 11 0 5 4 7 10 4 5 -3 17 -2 26 3 14 8 14 12
-7 31 -12 11 -28 21 -34 21 -6 0 -21 9 -33 20 -13 13 -22 16 -22 8 0 -9 -3 -9
-12 0 -18 18 -35 15 -52 -9z"/>
<path d="M2955 1520 c-3 -11 -9 -19 -13 -17 -14 4 -57 -35 -44 -40 6 -3 12
-13 12 -24 0 -12 7 -19 19 -19 11 0 26 -7 35 -15 8 -8 22 -12 30 -9 9 3 16 1
16 -5 0 -8 5 -9 19 -1 13 6 28 7 43 1 13 -6 17 -10 11 -10 -24 -2 -13 -16 12
-17 14 -1 23 2 20 7 -3 4 3 13 14 19 25 13 38 -4 21 -25 -10 -12 -9 -15 7 -15
10 0 24 5 30 11 8 8 10 2 8 -25 -3 -26 0 -36 11 -36 11 0 13 7 8 28 -6 23 -5
25 8 15 8 -7 19 -9 23 -5 5 4 5 -1 2 -10 -3 -10 -2 -20 3 -23 6 -4 10 8 10 27
0 18 7 46 15 62 22 42 19 53 -19 67 -19 7 -33 16 -31 19 2 4 -9 4 -25 2 -17
-2 -27 -8 -24 -13 3 -5 1 -9 -4 -9 -13 0 -33 25 -26 33 3 3 -4 8 -15 12 -12 3
-28 13 -36 21 -8 9 -15 11 -15 5 0 -6 -7 -11 -15 -11 -8 0 -15 5 -15 10 0 16
-50 12 -56 -5 -4 -8 -10 -15 -16 -15 -5 0 -7 4 -3 9 3 5 1 12 -4 15 -5 4 -12
-3 -16 -14z"/>
<path d="M2333 1518 c-19 -24 -24 -38 -15 -38 5 0 14 11 20 25 13 27 10 32 -5
13z"/>
<path d="M2359 1503 c-13 -16 -12 -17 4 -4 9 7 17 15 17 17 0 8 -8 3 -21 -13z"/>
<path d="M1990 1469 c0 -5 5 -7 10 -4 6 3 10 8 10 11 0 2 -4 4 -10 4 -5 0 -10
-5 -10 -11z"/>
<path d="M2165 1380 c-3 -5 -1 -10 4 -10 6 0 11 5 11 10 0 6 -2 10 -4 10 -3 0
-8 -4 -11 -10z"/>
<path d="M3232 1279 c2 -7 10 -15 17 -17 8 -3 12 1 9 9 -2 7 -10 15 -17 17 -8
3 -12 -1 -9 -9z"/>
<path d="M3147 1242 c-15 -3 -16 -7 -6 -18 6 -8 9 -17 5 -21 -3 -4 -12 1 -19
10 -6 9 -27 19 -45 21 -30 3 -31 2 -19 -13 8 -9 22 -31 31 -49 13 -25 22 -32
34 -27 9 4 23 8 29 8 18 1 27 35 13 52 -7 8 -7 14 -1 17 17 5 -3 24 -22 20z"/>
<path d="M2221 1130 c7 -18 21 -32 41 -39 39 -14 38 -14 38 4 0 8 -5 15 -11
15 -8 0 -9 4 0 13 12 16 5 28 -13 21 -7 -3 -24 0 -39 5 -25 10 -25 9 -16 -19z"/>
<path d="M2420 1011 c0 -13 28 -33 41 -29 8 3 6 9 -5 21 -19 18 -36 22 -36 8z"/>
<path d="M2637 993 c6 -15 4 -16 -9 -5 -13 10 -17 10 -22 -4 -10 -27 -7 -54 9
-60 8 -4 15 -12 15 -19 0 -15 28 -28 42 -19 5 3 18 -3 28 -14 10 -11 39 -23
64 -26 25 -4 46 -12 46 -17 0 -6 7 -3 16 5 8 9 24 16 35 16 24 0 26 20 2 20
-17 1 -17 1 0 14 23 17 22 26 -3 26 -11 0 -23 -7 -26 -15 -5 -13 -10 -12 -31
5 -14 11 -29 17 -34 15 -4 -3 -13 4 -19 15 -6 11 -18 20 -26 20 -8 0 -12 -4
-9 -10 3 -5 1 -10 -6 -10 -7 0 -9 10 -7 24 4 19 -2 27 -29 40 -42 20 -44 20
-36 -1z"/>
<path d="M2847 833 c-4 -3 1 -12 11 -20 16 -12 16 -13 0 -7 -11 4 -18 1 -18
-6 0 -6 5 -8 10 -5 6 3 10 1 10 -5 0 -6 4 -9 9 -6 13 8 10 56 -4 56 -6 0 -15
-3 -18 -7z"/>
</g>
</svg>
