<?xml version="1.0" standalone="no"?>
<!DOCTYPE svg PUBLIC "-//W3C//DTD SVG 20010904//EN"
 "http://www.w3.org/TR/2001/REC-SVG-20010904/DTD/svg10.dtd">
<svg version="1.0" xmlns="http://www.w3.org/2000/svg"
 width="700.000000pt" height="700.000000pt" viewBox="0 0 700.000000 700.000000"
 preserveAspectRatio="xMidYMid meet">
<metadata>
Created by potrace 1.14, written by Peter Selinger 2001-2017
</metadata>
<g transform="translate(0.000000,700.000000) scale(0.100000,-0.100000)"
fill="#000000" stroke="none">
<path d="M1417 5791 c-166 -45 -297 -176 -372 -370 -104 -272 -50 -525 156
-730 172 -171 284 -228 959 -487 135 -52 254 -99 265 -104 20 -9 166 -63 285
-106 248 -90 245 -88 247 -125 6 -102 7 -389 1 -489 -4 -63 -10 -191 -13 -285
-3 -93 -7 -171 -9 -172 -2 -2 -74 -30 -162 -64 -87 -33 -168 -64 -179 -69 -11
-5 -45 -19 -75 -30 -30 -11 -64 -24 -75 -29 -19 -9 -62 -25 -290 -111 -60 -22
-119 -45 -130 -50 -11 -5 -74 -29 -140 -54 -312 -115 -486 -201 -600 -298 -16
-12 -44 -36 -63 -53 -49 -41 -148 -168 -176 -224 -23 -45 -51 -125 -62 -172
-17 -78 4 -284 35 -347 86 -173 128 -233 204 -294 132 -105 317 -137 528 -93
82 17 249 72 325 105 233 104 322 157 415 249 105 105 167 206 218 359 67 202
79 340 69 799 -1 46 2 87 7 92 6 5 204 88 440 185 237 97 439 180 450 185 11
5 31 13 45 19 14 5 41 17 62 26 20 9 42 14 50 12 7 -3 31 -8 53 -11 22 -3 65
-10 95 -15 86 -14 132 -21 165 -25 17 -2 44 -6 60 -9 17 -3 48 -8 70 -11 22
-4 54 -9 70 -11 17 -3 46 -7 65 -10 19 -2 60 -9 90 -14 50 -8 79 -13 180 -26
19 -3 55 -9 80 -14 25 -5 63 -11 85 -14 36 -5 186 -28 260 -40 17 -2 53 -7 80
-11 28 -3 57 -8 65 -10 17 -4 73 -13 198 -30 20 -3 62 -10 92 -15 109 -19 126
-21 165 -26 22 -2 75 -10 117 -17 92 -17 113 -8 124 49 11 61 -12 85 -131 134
-16 7 -183 75 -370 152 -187 77 -398 164 -470 193 -71 30 -172 71 -223 92
l-93 39 313 129 c172 70 331 136 353 145 22 10 65 28 95 40 30 12 69 28 85 35
17 7 93 39 170 70 257 105 265 110 265 157 0 15 -10 38 -21 49 -26 26 -65 23
-309 -16 -47 -8 -110 -17 -140 -20 -30 -3 -62 -8 -70 -10 -8 -3 -35 -7 -60
-10 -44 -5 -73 -9 -135 -20 -16 -3 -50 -8 -75 -11 -25 -3 -52 -7 -60 -9 -8 -2
-39 -7 -69 -10 -30 -4 -63 -9 -75 -11 -12 -2 -41 -7 -66 -10 -25 -3 -52 -7
-60 -9 -8 -2 -34 -6 -57 -9 -80 -11 -119 -16 -140 -21 -12 -2 -73 -11 -135
-20 -62 -9 -124 -18 -138 -20 -23 -4 -204 -30 -276 -40 -17 -3 -74 -11 -126
-20 -110 -17 -84 -24 -333 80 -88 36 -230 95 -315 130 -85 35 -229 94 -320
132 l-165 68 2 95 c6 371 4 421 -17 570 -46 312 -173 536 -386 681 -137 94
-471 230 -644 264 -19 4 -87 8 -150 10 -89 3 -131 0 -183 -14z m486 -369 c76
-37 127 -91 166 -172 22 -48 26 -68 26 -150 0 -78 -4 -104 -24 -147 -28 -64
-94 -126 -169 -161 -49 -23 -70 -27 -147 -26 -75 0 -99 4 -145 26 -79 36 -135
90 -171 164 -27 54 -32 76 -33 141 -1 88 4 114 32 170 64 124 183 193 328 189
57 -1 84 -8 137 -34z m1778 -1916 c76 -52 76 -151 2 -204 -46 -32 -88 -36
-136 -13 -78 38 -99 113 -51 183 15 21 27 38 28 38 0 0 19 6 40 14 42 15 79 9
117 -18z m-1780 -1485 c223 -84 288 -382 121 -559 -71 -75 -137 -105 -242
-108 -108 -3 -169 18 -244 87 -129 118 -153 298 -61 445 49 77 114 124 207
148 68 18 149 13 219 -13z"/>
</g>
</svg>
