<svg xmlns="http://www.w3.org/2000/svg" width="200" height="200" id="svg" viewBox="-20 -20 40 40"
style="background-color: white;">
  <g id="dot">
    <g>
      <path class="st0" d="M13.7,3.4L-4-3.9c-0.3-0.3,1.1-6-2.8-8c-3.5-1.8-6.2-2-7.3,1.1c-0.9,2.6,0.9,4.6,3.7,5.7
		c3.7,1.5,7.3,2.8,7.3,2.8l0.1,3.1c0,0.5,0.4,1,1,1.1l15.6,2.4C14,4.4,14.2,3.6,13.7,3.4z M-10-7.2c-1.1,0-2-0.9-2-2
		c0-1.1,0.9-2,2-2s2,0.9,2,2C-7.9-8.1-8.8-7.2-10-7.2z M0.6,1.4C0.2,1.4-0.2,1-0.2,0.6s0.4-0.8,0.8-0.8s0.8,0.4,0.8,0.8
		S1.1,1.4,0.6,1.4z" style="fill: black;"/>
    </g>
    <g>
      <path class="st0" d="M13.4-3.2L-2.1-0.9c-0.5,0.1-0.9,0.5-1,1.1l-0.1,3.1c0,0-3.6,1.4-7.3,2.8c-2.7,1.1-4.6,3.1-3.7,5.7
		c1.2,3.1,3.8,2.9,7.3,1.1c3.9-2,2.5-7.7,2.8-8l17.7-7.3C14.2-2.6,14-3.3,13.4-3.2z M-7.9,10.3c0,1.1-0.9,2-2,2s-2-0.9-2-2
		c0-1.1,0.9-2,2-2S-7.9,9.1-7.9,10.3z M1.4,0.5c0,0.4-0.4,0.8-0.8,0.8S-0.2,1-0.2,0.5s0.4-0.8,0.8-0.8S1.4,0.1,1.4,0.5z" 
        style="fill: black;" />
    </g>
  </g>
</svg>